<svg xmlns="http://www.w3.org/2000/svg" width="581" height="200" viewBox="0 0 581 200" class="editor-view__logo-preview" data-v-7b637543="" data-v-fbfc791d=""><svg id="mark" viewBox="0 0 100 100" width="200" height="200" x="381" y="0" data-v-7b637543="" style="fill: rgb(110, 0, 0);"><rect x="0" y="0" width="100%" height="100%" fill="none" data-v-7b637543=""></rect><g data-v-7b637543=""><path xmlns="http://www.w3.org/2000/svg" d="m 54.00689,5 c -11.802393,0 -21.370077,9.56772 -21.370077,21.37014 0,10.31706 7.311375,18.9252 17.035245,20.92878 -4.753125,-2.85525 -7.876647,-7.677 -7.876647,-13.14459 0,-8.76753 8.030052,-15.87555 17.935605,-15.87555 6.717555,0 12.573,3.26925 15.645951,8.10774 l 0,-0.01638 C 75.376967,14.56772 65.809283,5 54.00689,5 z M 26.370077,24.62306 C 14.567693,24.62306 5,34.19069 5,45.99311 c 0,11.80242 9.567693,21.37005 21.370077,21.37005 10.317078,0 18.925263,-7.31133 20.928852,-17.0352 -2.855241,4.75308 -7.677108,7.87662 -13.144653,7.87662 -8.767458,0 -15.875487,-8.03007 -15.875487,-17.93556 0,-6.7176 3.269241,-12.573 8.107704,-15.64596 l -0.01642,0 z m 47.259846,8.01378 c -10.317078,0 -18.925263,7.31133 -20.928852,17.0352 2.855241,-4.75308 7.677108,-7.87662 13.144653,-7.87662 8.767458,0 15.875487,8.03007 15.875487,17.93565 0,6.71751 -3.269241,12.573 -8.107704,15.64587 l 0.01642,0 C 85.432307,75.37694 95,65.80931 95,54.00689 95,42.20447 85.432307,32.63684 73.629923,32.63684 z M 50.327942,52.70108 c 4.753125,2.85525 7.876647,7.67709 7.876647,13.14468 0,8.76744 -8.030052,15.87546 -17.935605,15.87546 -6.717555,0 -12.573,-3.26925 -15.645951,-8.10774 l 0,0.01647 C 24.623033,85.43228 34.190717,95 45.99311,95 c 11.802393,0 21.370077,-9.56772 21.370077,-21.37005 0,-10.31706 -7.311375,-18.92529 -17.035245,-20.92887 z" color="#000000" enable-background="accumulate" fill-opacity="1" fill-rule="nonzero" stroke="none" marker="none" visibility="visible" display="inline" overflow="visible"></path></g></svg><svg id="name" viewBox="0 0 365.3720703125 34.94921875" width="365" height="34.91362881908157" x="0" y="72.94125225712588" data-v-7b637543="" style="fill: rgb(0, 17, 112);"><rect x="0" y="0" width="100%" height="100%" fill="none" data-v-7b637543=""></rect><g data-v-7b637543=""><path xmlns="http://www.w3.org/2000/svg" d="M26.62 1.80L26.62 34.50L19.88 34.50L19.88 20.48L6.74 20.48L6.74 34.50L0 34.50L0 1.80L6.74 1.80L6.74 15.05L19.88 15.05L19.88 1.80L26.62 1.80ZM52.72 34.50L46.16 34.50Q45.71 33.62 45.51 32.32L45.51 32.32Q43.15 34.95 39.37 34.95L39.37 34.95Q35.80 34.95 33.46 32.88Q31.11 30.82 31.11 27.67L31.11 27.67Q31.11 23.81 33.97 21.74Q36.84 19.68 42.25 19.65L42.25 19.65L45.24 19.65L45.24 18.26Q45.24 16.58 44.37 15.57Q43.51 14.55 41.64 14.55L41.64 14.55Q40.00 14.55 39.07 15.34Q38.14 16.13 38.14 17.50L38.14 17.50L31.65 17.50Q31.65 15.39 32.95 13.59Q34.25 11.79 36.63 10.77Q39.01 9.75 41.98 9.75L41.98 9.75Q46.47 9.75 49.11 12.01Q51.75 14.26 51.75 18.35L51.75 18.35L51.75 28.88Q51.77 32.34 52.72 34.12L52.72 34.12L52.72 34.50ZM40.79 29.99L40.79 29.99Q42.23 29.99 43.44 29.35Q44.65 28.71 45.24 27.63L45.24 27.63L45.24 23.45L42.81 23.45Q37.94 23.45 37.62 26.82L37.62 26.82L37.60 27.20Q37.60 28.41 38.45 29.20Q39.31 29.99 40.79 29.99ZM70.48 10.04L70.39 16.28Q69.07 16.10 68.06 16.10L68.06 16.10Q64.37 16.10 63.23 18.60L63.23 18.60L63.23 34.50L56.74 34.50L56.74 10.20L62.87 10.20L63.05 13.09Q65.00 9.75 68.46 9.75L68.46 9.75Q69.54 9.75 70.48 10.04L70.48 10.04ZM72.08 22.17L72.08 22.17Q72.08 16.49 74.63 13.12Q77.18 9.75 81.60 9.75L81.60 9.75Q85.15 9.75 87.46 12.40L87.46 12.40L87.46 0L93.98 0L93.98 34.50L88.11 34.50L87.80 31.92Q85.37 34.95 81.56 34.95L81.56 34.95Q77.27 34.95 74.67 31.57Q72.08 28.19 72.08 22.17ZM78.57 22.64L78.57 22.64Q78.57 26.05 79.76 27.87Q80.95 29.69 83.22 29.69L83.22 29.69Q86.23 29.69 87.46 27.16L87.46 27.16L87.46 17.56Q86.25 15.03 83.26 15.03L83.26 15.03Q78.57 15.03 78.57 22.64ZM115.72 10.20L120.14 25.67L123.33 10.20L129.60 10.20L123.40 34.50L117.96 34.50L113.36 19.20L108.76 34.50L103.34 34.50L97.14 10.20L103.41 10.20L106.58 25.65L111.02 10.20L115.72 10.20ZM153.45 34.50L146.89 34.50Q146.45 33.62 146.24 32.32L146.24 32.32Q143.88 34.95 140.11 34.95L140.11 34.95Q136.54 34.95 134.19 32.88Q131.85 30.82 131.85 27.67L131.85 27.67Q131.85 23.81 134.71 21.74Q137.57 19.68 142.99 19.65L142.99 19.65L145.97 19.65L145.97 18.26Q145.97 16.58 145.11 15.57Q144.24 14.55 142.38 14.55L142.38 14.55Q140.74 14.55 139.81 15.34Q138.88 16.13 138.88 17.50L138.88 17.50L132.38 17.50Q132.38 15.39 133.69 13.59Q134.99 11.79 137.37 10.77Q139.75 9.75 142.72 9.75L142.72 9.75Q147.21 9.75 149.85 12.01Q152.49 14.26 152.49 18.35L152.49 18.35L152.49 28.88Q152.51 32.34 153.45 34.12L153.45 34.12L153.45 34.50ZM141.53 29.99L141.53 29.99Q142.96 29.99 144.18 29.35Q145.39 28.71 145.97 27.63L145.97 27.63L145.97 23.45L143.55 23.45Q138.67 23.45 138.36 26.82L138.36 26.82L138.34 27.20Q138.34 28.41 139.19 29.20Q140.04 29.99 141.53 29.99ZM171.22 10.04L171.13 16.28Q169.80 16.10 168.79 16.10L168.79 16.10Q165.11 16.10 163.96 18.60L163.96 18.60L163.96 34.50L157.47 34.50L157.47 10.20L163.61 10.20L163.79 13.09Q165.74 9.75 169.20 9.75L169.20 9.75Q170.28 9.75 171.22 10.04L171.22 10.04ZM185.01 34.95L185.01 34.95Q179.67 34.95 176.31 31.67Q172.95 28.39 172.95 22.93L172.95 22.93L172.95 22.30Q172.95 18.64 174.36 15.76Q175.78 12.87 178.37 11.31Q180.97 9.75 184.29 9.75L184.29 9.75Q189.28 9.75 192.14 12.89Q195.01 16.04 195.01 21.81L195.01 21.81L195.01 24.46L179.53 24.46Q179.84 26.84 181.43 28.28Q183.01 29.72 185.44 29.72L185.44 29.72Q189.19 29.72 191.30 27.00L191.30 27.00L194.49 30.57Q193.03 32.64 190.54 33.79Q188.04 34.95 185.01 34.95ZM184.27 15.00L184.27 15.00Q182.34 15.00 181.14 16.31Q179.93 17.61 179.60 20.04L179.60 20.04L188.63 20.04L188.63 19.52Q188.58 17.36 187.46 16.18Q186.34 15.00 184.27 15.00ZM233.84 1.80L233.84 7.25L223.82 7.25L223.82 34.50L217.08 34.50L217.08 7.25L207.20 7.25L207.20 1.80L233.84 1.80ZM254.12 34.50L247.56 34.50Q247.12 33.62 246.91 32.32L246.91 32.32Q244.55 34.95 240.78 34.95L240.78 34.95Q237.21 34.95 234.86 32.88Q232.52 30.82 232.52 27.67L232.52 27.67Q232.52 23.81 235.38 21.74Q238.24 19.68 243.66 19.65L243.66 19.65L246.64 19.65L246.64 18.26Q246.64 16.58 245.78 15.57Q244.91 14.55 243.05 14.55L243.05 14.55Q241.41 14.55 240.48 15.34Q239.55 16.13 239.55 17.50L239.55 17.50L233.05 17.50Q233.05 15.39 234.36 13.59Q235.66 11.79 238.04 10.77Q240.42 9.75 243.39 9.75L243.39 9.75Q247.88 9.75 250.52 12.01Q253.16 14.26 253.16 18.35L253.16 18.35L253.16 28.88Q253.18 32.34 254.12 34.12L254.12 34.12L254.12 34.50ZM242.20 29.99L242.20 29.99Q243.63 29.99 244.85 29.35Q246.06 28.71 246.64 27.63L246.64 27.63L246.64 23.45L244.22 23.45Q239.34 23.45 239.03 26.82L239.03 26.82L239.01 27.20Q239.01 28.41 239.86 29.20Q240.71 29.99 242.20 29.99ZM268.25 29.72L268.25 29.72Q270.05 29.72 271.17 28.73Q272.29 27.74 272.34 26.10L272.34 26.10L278.43 26.10Q278.40 28.57 277.08 30.63Q275.75 32.68 273.45 33.81Q271.15 34.95 268.36 34.95L268.36 34.95Q263.15 34.95 260.14 31.64Q257.13 28.32 257.13 22.48L257.13 22.48L257.13 22.06Q257.13 16.44 260.12 13.09Q263.11 9.75 268.32 9.75L268.32 9.75Q272.88 9.75 275.63 12.34Q278.38 14.94 278.43 19.25L278.43 19.25L272.34 19.25Q272.29 17.36 271.17 16.18Q270.05 15.00 268.21 15.00L268.21 15.00Q265.94 15.00 264.78 16.65Q263.62 18.31 263.62 22.01L263.62 22.01L263.62 22.69Q263.62 26.44 264.77 28.08Q265.92 29.72 268.25 29.72ZM283.41 4.22L289.90 4.22L289.90 10.20L294.06 10.20L294.06 14.96L289.90 14.96L289.90 27.09Q289.90 28.44 290.42 29.02Q290.94 29.60 292.40 29.60L292.40 29.60Q293.47 29.60 294.31 29.45L294.31 29.45L294.31 34.37Q292.40 34.95 290.38 34.95L290.38 34.95Q283.55 34.95 283.41 28.05L283.41 28.05L283.41 14.96L279.86 14.96L279.86 10.20L283.41 10.20L283.41 4.22ZM304.53 10.20L304.53 34.50L298.01 34.50L298.01 10.20L304.53 10.20ZM297.63 3.91L297.63 3.91Q297.63 2.45 298.61 1.50Q299.58 0.56 301.27 0.56L301.27 0.56Q302.93 0.56 303.92 1.50Q304.91 2.45 304.91 3.91L304.91 3.91Q304.91 5.39 303.91 6.33Q302.91 7.28 301.27 7.28Q299.63 7.28 298.63 6.33Q297.63 5.39 297.63 3.91ZM319.98 29.72L319.98 29.72Q321.78 29.72 322.90 28.73Q324.02 27.74 324.07 26.10L324.07 26.10L330.15 26.10Q330.13 28.57 328.81 30.63Q327.48 32.68 325.18 33.81Q322.88 34.95 320.09 34.95L320.09 34.95Q314.88 34.95 311.87 31.64Q308.86 28.32 308.86 22.48L308.86 22.48L308.86 22.06Q308.86 16.44 311.85 13.09Q314.83 9.75 320.05 9.75L320.05 9.75Q324.61 9.75 327.36 12.34Q330.11 14.94 330.15 19.25L330.15 19.25L324.07 19.25Q324.02 17.36 322.90 16.18Q321.78 15.00 319.93 15.00L319.93 15.00Q317.67 15.00 316.51 16.65Q315.35 18.31 315.35 22.01L315.35 22.01L315.35 22.69Q315.35 26.44 316.50 28.08Q317.64 29.72 319.98 29.72ZM354.50 34.50L347.94 34.50Q347.49 33.62 347.29 32.32L347.29 32.32Q344.93 34.95 341.16 34.95L341.16 34.95Q337.59 34.95 335.24 32.88Q332.89 30.82 332.89 27.67L332.89 27.67Q332.89 23.81 335.76 21.74Q338.62 19.68 344.03 19.65L344.03 19.65L347.02 19.65L347.02 18.26Q347.02 16.58 346.16 15.57Q345.29 14.55 343.43 14.55L343.43 14.55Q341.79 14.55 340.86 15.34Q339.92 16.13 339.92 17.50L339.92 17.50L333.43 17.50Q333.43 15.39 334.74 13.59Q336.04 11.79 338.42 10.77Q340.80 9.75 343.76 9.75L343.76 9.75Q348.26 9.75 350.90 12.01Q353.54 14.26 353.54 18.35L353.54 18.35L353.54 28.88Q353.56 32.34 354.50 34.12L354.50 34.12L354.50 34.50ZM342.57 29.99L342.57 29.99Q344.01 29.99 345.22 29.35Q346.44 28.71 347.02 27.63L347.02 27.63L347.02 23.45L344.60 23.45Q339.72 23.45 339.41 26.82L339.41 26.82L339.38 27.20Q339.38 28.41 340.24 29.20Q341.09 29.99 342.57 29.99ZM365.37 0L365.37 34.50L358.86 34.50L358.86 0L365.37 0Z"></path></g></svg><svg id="slogan" viewBox="0 0 219.7265625 19.267578125" width="219" height="19.203866666666666" x="0" y="111.85488107620745" data-v-7b637543="" style="fill: rgb(214, 214, 214);"><rect x="0" y="0" width="100%" height="100%" fill="none" data-v-7b637543=""></rect><g data-v-7b637543=""><path xmlns="http://www.w3.org/2000/svg" d="M7.97 11.27L7.97 11.27Q7.97 10.44 7.38 10.00Q6.80 9.55 5.27 9.06Q3.75 8.56 2.86 8.09L2.86 8.09Q0.44 6.78 0.44 4.56L0.44 4.56Q0.44 3.41 1.09 2.50Q1.74 1.60 2.95 1.09Q4.17 0.59 5.68 0.59L5.68 0.59Q7.21 0.59 8.40 1.14Q9.59 1.69 10.25 2.70Q10.91 3.70 10.91 4.98L10.91 4.98L7.98 4.98Q7.98 4.00 7.36 3.46Q6.75 2.92 5.63 2.92L5.63 2.92Q4.56 2.92 3.96 3.37Q3.37 3.83 3.37 4.57L3.37 4.57Q3.37 5.26 4.07 5.73Q4.77 6.20 6.12 6.61L6.12 6.61Q8.62 7.36 9.77 8.48Q10.91 9.59 10.91 11.25L10.91 11.25Q10.91 13.10 9.51 14.15Q8.12 15.20 5.75 15.20L5.75 15.20Q4.11 15.20 2.76 14.59Q1.42 13.99 0.71 12.95Q0 11.90 0 10.53L0 10.53L2.94 10.53Q2.94 12.88 5.75 12.88L5.75 12.88Q6.80 12.88 7.38 12.46Q7.97 12.03 7.97 11.27ZM13.26 1.84L16.08 1.84L16.08 4.43L17.89 4.43L17.89 6.50L16.08 6.50L16.08 11.78Q16.08 12.36 16.31 12.62Q16.53 12.87 17.17 12.87L17.17 12.87Q17.64 12.87 18.00 12.80L18.00 12.80L18.00 14.94Q17.17 15.20 16.29 15.20L16.29 15.20Q13.32 15.20 13.26 12.20L13.26 12.20L13.26 6.50L11.72 6.50L11.72 4.43L13.26 4.43L13.26 1.84ZM28.44 15L25.59 15Q25.39 14.62 25.30 14.05L25.30 14.05Q24.28 15.20 22.64 15.20L22.64 15.20Q21.08 15.20 20.06 14.30Q19.04 13.40 19.04 12.03L19.04 12.03Q19.04 10.35 20.29 9.45Q21.53 8.55 23.89 8.54L23.89 8.54L25.19 8.54L25.19 7.94Q25.19 7.21 24.81 6.77Q24.43 6.33 23.62 6.33L23.62 6.33Q22.91 6.33 22.50 6.67Q22.10 7.01 22.10 7.61L22.10 7.61L19.28 7.61Q19.28 6.69 19.84 5.91Q20.41 5.13 21.45 4.68Q22.48 4.24 23.77 4.24L23.77 4.24Q25.72 4.24 26.87 5.22Q28.02 6.20 28.02 7.98L28.02 7.98L28.02 12.56Q28.03 14.06 28.44 14.83L28.44 14.83L28.44 15ZM23.25 13.04L23.25 13.04Q23.88 13.04 24.40 12.76Q24.93 12.48 25.19 12.01L25.19 12.01L25.19 10.20L24.13 10.20Q22.01 10.20 21.88 11.66L21.88 11.66L21.87 11.83Q21.87 12.35 22.24 12.70Q22.61 13.04 23.25 13.04ZM32.02 4.43L33.98 11.01L35.94 4.43L38.96 4.43L34.72 16.64L34.48 17.20Q33.54 19.27 31.36 19.27L31.36 19.27Q30.74 19.27 30.11 19.08L30.11 19.08L30.11 16.94L30.54 16.95Q31.34 16.95 31.73 16.71Q32.13 16.46 32.35 15.90L32.35 15.90L32.69 15.03L28.98 4.43L32.02 4.43ZM45.62 1.84L48.44 1.84L48.44 4.43L50.24 4.43L50.24 6.50L48.44 6.50L48.44 11.78Q48.44 12.36 48.66 12.62Q48.89 12.87 49.52 12.87L49.52 12.87Q49.99 12.87 50.35 12.80L50.35 12.80L50.35 14.94Q49.52 15.20 48.64 15.20L48.64 15.20Q45.67 15.20 45.62 12.20L45.62 12.20L45.62 6.50L44.07 6.50L44.07 4.43L45.62 4.43L45.62 1.84ZM60.79 15L57.94 15Q57.74 14.62 57.66 14.05L57.66 14.05Q56.63 15.20 54.99 15.20L54.99 15.20Q53.44 15.20 52.42 14.30Q51.40 13.40 51.40 12.03L51.40 12.03Q51.40 10.35 52.64 9.45Q53.89 8.55 56.24 8.54L56.24 8.54L57.54 8.54L57.54 7.94Q57.54 7.21 57.16 6.77Q56.79 6.33 55.98 6.33L55.98 6.33Q55.26 6.33 54.86 6.67Q54.45 7.01 54.45 7.61L54.45 7.61L51.63 7.61Q51.63 6.69 52.20 5.91Q52.76 5.13 53.80 4.68Q54.83 4.24 56.12 4.24L56.12 4.24Q58.08 4.24 59.22 5.22Q60.37 6.20 60.37 7.98L60.37 7.98L60.37 12.56Q60.38 14.06 60.79 14.83L60.79 14.83L60.79 15ZM55.61 13.04L55.61 13.04Q56.23 13.04 56.76 12.76Q57.29 12.48 57.54 12.01L57.54 12.01L57.54 10.20L56.48 10.20Q54.37 10.20 54.23 11.66L54.23 11.66L54.22 11.83Q54.22 12.35 54.59 12.70Q54.96 13.04 55.61 13.04ZM66.93 12.92L66.93 12.92Q67.71 12.92 68.20 12.49Q68.69 12.06 68.71 11.35L68.71 11.35L71.36 11.35Q71.35 12.42 70.77 13.32Q70.20 14.21 69.19 14.70Q68.19 15.20 66.98 15.20L66.98 15.20Q64.72 15.20 63.41 13.75Q62.10 12.31 62.10 9.78L62.10 9.78L62.10 9.59Q62.10 7.15 63.40 5.69Q64.70 4.24 66.96 4.24L66.96 4.24Q68.95 4.24 70.14 5.37Q71.34 6.49 71.36 8.37L71.36 8.37L68.71 8.37Q68.69 7.55 68.20 7.04Q67.71 6.52 66.91 6.52L66.91 6.52Q65.93 6.52 65.42 7.24Q64.92 7.96 64.92 9.57L64.92 9.57L64.92 9.86Q64.92 11.49 65.42 12.21Q65.92 12.92 66.93 12.92ZM73.53 1.84L76.35 1.84L76.35 4.43L78.15 4.43L78.15 6.50L76.35 6.50L76.35 11.78Q76.35 12.36 76.57 12.62Q76.80 12.87 77.43 12.87L77.43 12.87Q77.90 12.87 78.26 12.80L78.26 12.80L78.26 14.94Q77.43 15.20 76.55 15.20L76.55 15.20Q73.58 15.20 73.53 12.20L73.53 12.20L73.53 6.50L71.98 6.50L71.98 4.43L73.53 4.43L73.53 1.84ZM82.71 4.43L82.71 15L79.87 15L79.87 4.43L82.71 4.43ZM79.71 1.70L79.71 1.70Q79.71 1.06 80.13 0.65Q80.56 0.24 81.29 0.24L81.29 0.24Q82.01 0.24 82.44 0.65Q82.87 1.06 82.87 1.70L82.87 1.70Q82.87 2.34 82.44 2.75Q82.00 3.16 81.29 3.16Q80.58 3.16 80.14 2.75Q79.71 2.34 79.71 1.70ZM89.42 12.92L89.42 12.92Q90.21 12.92 90.69 12.49Q91.18 12.06 91.20 11.35L91.20 11.35L93.85 11.35Q93.84 12.42 93.26 13.32Q92.69 14.21 91.68 14.70Q90.68 15.20 89.47 15.20L89.47 15.20Q87.21 15.20 85.90 13.75Q84.59 12.31 84.59 9.78L84.59 9.78L84.59 9.59Q84.59 7.15 85.89 5.69Q87.19 4.24 89.45 4.24L89.45 4.24Q91.44 4.24 92.63 5.37Q93.83 6.49 93.85 8.37L93.85 8.37L91.20 8.37Q91.18 7.55 90.69 7.04Q90.21 6.52 89.40 6.52L89.40 6.52Q88.42 6.52 87.92 7.24Q87.41 7.96 87.41 9.57L87.41 9.57L87.41 9.86Q87.41 11.49 87.91 12.21Q88.41 12.92 89.42 12.92ZM96.19 18.56L96.19 18.56L94.72 17.79L95.07 17.16Q95.72 15.97 95.74 14.79L95.74 14.79L95.74 12.60L98.13 12.60L98.12 14.55Q98.11 15.63 97.57 16.74Q97.03 17.84 96.19 18.56ZM112.88 11.27L112.88 11.27Q112.88 10.44 112.29 10.00Q111.71 9.55 110.19 9.06Q108.66 8.56 107.77 8.09L107.77 8.09Q105.35 6.78 105.35 4.56L105.35 4.56Q105.35 3.41 106.00 2.50Q106.65 1.60 107.87 1.09Q109.08 0.59 110.60 0.59L110.60 0.59Q112.12 0.59 113.31 1.14Q114.50 1.69 115.16 2.70Q115.82 3.70 115.82 4.98L115.82 4.98L112.89 4.98Q112.89 4.00 112.28 3.46Q111.66 2.92 110.55 2.92L110.55 2.92Q109.47 2.92 108.88 3.37Q108.28 3.83 108.28 4.57L108.28 4.57Q108.28 5.26 108.98 5.73Q109.68 6.20 111.04 6.61L111.04 6.61Q113.54 7.36 114.68 8.48Q115.82 9.59 115.82 11.25L115.82 11.25Q115.82 13.10 114.42 14.15Q113.03 15.20 110.66 15.20L110.66 15.20Q109.02 15.20 107.68 14.59Q106.33 13.99 105.62 12.95Q104.91 11.90 104.91 10.53L104.91 10.53L107.85 10.53Q107.85 12.88 110.66 12.88L110.66 12.88Q111.71 12.88 112.29 12.46Q112.88 12.03 112.88 11.27ZM118.17 1.84L121.00 1.84L121.00 4.43L122.80 4.43L122.80 6.50L121.00 6.50L121.00 11.78Q121.00 12.36 121.22 12.62Q121.45 12.87 122.08 12.87L122.08 12.87Q122.55 12.87 122.91 12.80L122.91 12.80L122.91 14.94Q122.08 15.20 121.20 15.20L121.20 15.20Q118.23 15.20 118.17 12.20L118.17 12.20L118.17 6.50L116.63 6.50L116.63 4.43L118.17 4.43L118.17 1.84ZM133.35 15L130.50 15Q130.30 14.62 130.21 14.05L130.21 14.05Q129.19 15.20 127.55 15.20L127.55 15.20Q126.00 15.20 124.98 14.30Q123.96 13.40 123.96 12.03L123.96 12.03Q123.96 10.35 125.20 9.45Q126.45 8.55 128.80 8.54L128.80 8.54L130.10 8.54L130.10 7.94Q130.10 7.21 129.72 6.77Q129.35 6.33 128.54 6.33L128.54 6.33Q127.82 6.33 127.42 6.67Q127.01 7.01 127.01 7.61L127.01 7.61L124.19 7.61Q124.19 6.69 124.76 5.91Q125.32 5.13 126.36 4.68Q127.39 4.24 128.68 4.24L128.68 4.24Q130.63 4.24 131.78 5.22Q132.93 6.20 132.93 7.98L132.93 7.98L132.93 12.56Q132.94 14.06 133.35 14.83L133.35 14.83L133.35 15ZM128.16 13.04L128.16 13.04Q128.79 13.04 129.32 12.76Q129.84 12.48 130.10 12.01L130.10 12.01L130.10 10.20L129.04 10.20Q126.92 10.20 126.79 11.66L126.79 11.66L126.78 11.83Q126.78 12.35 127.15 12.70Q127.52 13.04 128.16 13.04ZM136.93 4.43L138.90 11.01L140.85 4.43L143.88 4.43L139.63 16.64L139.39 17.20Q138.45 19.27 136.27 19.27L136.27 19.27Q135.65 19.27 135.02 19.08L135.02 19.08L135.02 16.94L135.45 16.95Q136.25 16.95 136.65 16.71Q137.04 16.46 137.27 15.90L137.27 15.90L137.60 15.03L133.90 4.43L136.93 4.43ZM154.83 15.20L154.83 15.20Q152.51 15.20 151.05 13.77Q149.59 12.34 149.59 9.97L149.59 9.97L149.59 9.70Q149.59 8.11 150.21 6.85Q150.82 5.60 151.95 4.92Q153.08 4.24 154.52 4.24L154.52 4.24Q156.69 4.24 157.93 5.61Q159.18 6.97 159.18 9.48L159.18 9.48L159.18 10.63L152.45 10.63Q152.59 11.67 153.28 12.29Q153.96 12.92 155.02 12.92L155.02 12.92Q156.65 12.92 157.57 11.74L157.57 11.74L158.96 13.29Q158.32 14.19 157.24 14.69Q156.15 15.20 154.83 15.20ZM154.51 6.52L154.51 6.52Q153.67 6.52 153.15 7.09Q152.63 7.66 152.48 8.71L152.48 8.71L156.41 8.71L156.41 8.49Q156.39 7.55 155.90 7.04Q155.41 6.52 154.51 6.52ZM160.34 9.62L160.34 9.62Q160.34 7.13 161.45 5.68Q162.56 4.24 164.49 4.24L164.49 4.24Q166.19 4.24 167.20 5.54L167.20 5.54L167.38 4.43L169.86 4.43L169.86 19.06L167.03 19.06L167.03 14.09Q166.05 15.20 164.47 15.20L164.47 15.20Q162.59 15.20 161.46 13.73Q160.34 12.27 160.34 9.62ZM163.16 9.82L163.16 9.82Q163.16 11.34 163.70 12.13Q164.23 12.92 165.20 12.92L165.20 12.92Q166.49 12.92 167.03 11.88L167.03 11.88L167.03 7.52Q166.50 6.52 165.21 6.52L165.21 6.52Q164.24 6.52 163.70 7.31Q163.16 8.11 163.16 9.82ZM178.49 15L178.41 13.93Q177.36 15.20 175.52 15.20L175.52 15.20Q173.82 15.20 172.92 14.22Q172.03 13.24 172.01 11.36L172.01 11.36L172.01 4.43L174.83 4.43L174.83 11.26Q174.83 12.91 176.34 12.91L176.34 12.91Q177.77 12.91 178.31 11.91L178.31 11.91L178.31 4.43L181.14 4.43L181.14 15L178.49 15ZM186.25 4.43L186.25 15L183.42 15L183.42 4.43L186.25 4.43ZM183.25 1.70L183.25 1.70Q183.25 1.06 183.68 0.65Q184.10 0.24 184.83 0.24L184.83 0.24Q185.56 0.24 185.99 0.65Q186.42 1.06 186.42 1.70L186.42 1.70Q186.42 2.34 185.98 2.75Q185.55 3.16 184.83 3.16Q184.12 3.16 183.69 2.75Q183.25 2.34 183.25 1.70ZM198.09 9.67L198.09 9.81Q198.09 12.26 196.98 13.73Q195.87 15.20 193.98 15.20L193.98 15.20Q192.38 15.20 191.40 14.08L191.40 14.08L191.40 19.06L188.57 19.06L188.57 4.43L191.19 4.43L191.29 5.47Q192.31 4.24 193.96 4.24L193.96 4.24Q195.92 4.24 197.00 5.68Q198.09 7.13 198.09 9.67L198.09 9.67ZM195.26 9.61L195.26 9.61Q195.26 8.13 194.74 7.33Q194.22 6.53 193.22 6.53L193.22 6.53Q191.89 6.53 191.40 7.55L191.40 7.55L191.40 11.88Q191.91 12.92 193.24 12.92L193.24 12.92Q195.26 12.92 195.26 9.61ZM204.70 15.20L204.70 15.20Q202.37 15.20 200.91 13.77Q199.45 12.34 199.45 9.97L199.45 9.97L199.45 9.70Q199.45 8.11 200.07 6.85Q200.68 5.60 201.81 4.92Q202.94 4.24 204.38 4.24L204.38 4.24Q206.55 4.24 207.80 5.61Q209.04 6.97 209.04 9.48L209.04 9.48L209.04 10.63L202.31 10.63Q202.45 11.67 203.14 12.29Q203.83 12.92 204.88 12.92L204.88 12.92Q206.51 12.92 207.43 11.74L207.43 11.74L208.82 13.29Q208.18 14.19 207.10 14.69Q206.02 15.20 204.70 15.20ZM204.38 6.52L204.38 6.52Q203.54 6.52 203.01 7.09Q202.49 7.66 202.34 8.71L202.34 8.71L206.27 8.71L206.27 8.49Q206.25 7.55 205.76 7.04Q205.27 6.52 204.38 6.52ZM210.21 9.64L210.21 9.64Q210.21 7.17 211.31 5.70Q212.42 4.24 214.35 4.24L214.35 4.24Q215.89 4.24 216.89 5.39L216.89 5.39L216.89 0L219.73 0L219.73 15L217.18 15L217.04 13.88Q215.99 15.20 214.33 15.20L214.33 15.20Q212.46 15.20 211.33 13.73Q210.21 12.26 210.21 9.64ZM213.03 9.84L213.03 9.84Q213.03 11.33 213.54 12.12Q214.06 12.91 215.05 12.91L215.05 12.91Q216.36 12.91 216.89 11.81L216.89 11.81L216.89 7.64Q216.37 6.53 215.07 6.53L215.07 6.53Q213.03 6.53 213.03 9.84Z"></path></g></svg></svg>