<svg xmlns="http://www.w3.org/2000/svg" width="200" height="200" viewBox="0 0 200 200" class="editor-view__logo-preview" data-v-7b637543="" data-v-fbfc791d=""><svg id="mark" viewBox="0 0 100 100" width="200" height="200" x="0" y="0" data-v-7b637543="" style="fill: rgb(110, 0, 0);"><rect x="0" y="0" width="100%" height="100%" fill="none" data-v-7b637543=""></rect><g data-v-7b637543=""><path xmlns="http://www.w3.org/2000/svg" d="m 54.00689,5 c -11.802393,0 -21.370077,9.56772 -21.370077,21.37014 0,10.31706 7.311375,18.9252 17.035245,20.92878 -4.753125,-2.85525 -7.876647,-7.677 -7.876647,-13.14459 0,-8.76753 8.030052,-15.87555 17.935605,-15.87555 6.717555,0 12.573,3.26925 15.645951,8.10774 l 0,-0.01638 C 75.376967,14.56772 65.809283,5 54.00689,5 z M 26.370077,24.62306 C 14.567693,24.62306 5,34.19069 5,45.99311 c 0,11.80242 9.567693,21.37005 21.370077,21.37005 10.317078,0 18.925263,-7.31133 20.928852,-17.0352 -2.855241,4.75308 -7.677108,7.87662 -13.144653,7.87662 -8.767458,0 -15.875487,-8.03007 -15.875487,-17.93556 0,-6.7176 3.269241,-12.573 8.107704,-15.64596 l -0.01642,0 z m 47.259846,8.01378 c -10.317078,0 -18.925263,7.31133 -20.928852,17.0352 2.855241,-4.75308 7.677108,-7.87662 13.144653,-7.87662 8.767458,0 15.875487,8.03007 15.875487,17.93565 0,6.71751 -3.269241,12.573 -8.107704,15.64587 l 0.01642,0 C 85.432307,75.37694 95,65.80931 95,54.00689 95,42.20447 85.432307,32.63684 73.629923,32.63684 z M 50.327942,52.70108 c 4.753125,2.85525 7.876647,7.67709 7.876647,13.14468 0,8.76744 -8.030052,15.87546 -17.935605,15.87546 -6.717555,0 -12.573,-3.26925 -15.645951,-8.10774 l 0,0.01647 C 24.623033,85.43228 34.190717,95 45.99311,95 c 11.802393,0 21.370077,-9.56772 21.370077,-21.37005 0,-10.31706 -7.311375,-18.92529 -17.035245,-20.92887 z" color="#000000" enable-background="accumulate" fill-opacity="1" fill-rule="nonzero" stroke="none" marker="none" visibility="visible" display="inline" overflow="visible"></path></g></svg><!----><!----></svg>